<svg width="1060" height="213" viewBox="0 0 1060 213" fill="none" xmlns="http://www.w3.org/2000/svg">
<path d="M73.75 174C71.0833 174 69.0833 173.5 67.75 172.5C66.4167 171.5 65.1667 169.583 64 166.75L0.75 12.25C0.25 10.75 3.7998e-07 9.41666 3.7998e-07 8.24999C3.7998e-07 5.41666 1.5 4 4.5 4H34.5C36.8333 4 38.5833 4.5 39.75 5.49999C41.0833 6.49999 42.0833 7.91666 42.75 9.75L82.75 117L122.75 9.75C124.083 5.91667 126.917 4 131.25 4H161.25C164.25 4 165.75 5.41666 165.75 8.24999C165.75 9.41666 165.5 10.75 165 12.25L102 166.75C100.833 169.583 99.5 171.5 98 172.5C96.6667 173.5 94.6667 174 92 174H73.75ZM225.023 177.75C202.857 177.75 185.607 172.083 173.273 160.75C161.107 149.25 155.023 133.667 155.023 114C155.023 94.3333 161.107 78.8333 173.273 67.5C185.607 56 202.857 50.25 225.023 50.25C247.357 50.25 264.607 56 276.773 67.5C289.107 78.8333 295.273 94.3333 295.273 114C295.273 133.667 289.107 149.25 276.773 160.75C264.607 172.083 247.357 177.75 225.023 177.75ZM225.023 148C234.523 148 241.773 145.167 246.773 139.5C251.773 133.833 254.273 125.333 254.273 114C254.273 102.833 251.773 94.4167 246.773 88.75C241.773 83.0833 234.523 80.25 225.023 80.25C215.69 80.25 208.523 83.0833 203.523 88.75C198.523 94.4167 196.023 102.833 196.023 114C196.023 125.167 198.523 133.667 203.523 139.5C208.523 145.167 215.69 148 225.023 148ZM376.188 177.75C353.354 177.75 335.688 172.333 323.188 161.5C310.688 150.5 304.438 134.75 304.438 114.25C304.438 101.583 307.271 90.4167 312.938 80.75C318.771 71.0833 327.104 63.5833 337.938 58.25C348.771 52.9167 361.521 50.25 376.188 50.25C387.021 50.25 396.271 51.3333 403.938 53.5C411.604 55.6667 418.604 58.9167 424.938 63.25C426.604 64.4167 427.438 65.75 427.438 67.25C427.438 68.5833 426.938 70 425.938 71.5L417.438 86.25C416.271 88.25 415.104 89.25 413.938 89.25C413.104 89.25 411.688 88.6667 409.688 87.5C404.854 84.5 400.188 82.25 395.688 80.75C391.188 79.25 385.771 78.5 379.438 78.5C368.938 78.5 360.604 81.75 354.438 88.25C348.438 94.5833 345.438 103.25 345.438 114.25C345.438 125.917 348.438 134.667 354.438 140.5C360.604 146.333 369.438 149.25 380.938 149.25C387.271 149.25 392.771 148.5 397.438 147C402.271 145.333 406.938 143.083 411.438 140.25C413.438 139.083 414.854 138.5 415.688 138.5C416.854 138.5 418.021 139.5 419.188 141.5L428.438 157.25C429.271 158.583 429.688 159.667 429.688 160.5C429.688 161.833 428.688 163.167 426.688 164.5C419.688 169 412.188 172.333 404.188 174.5C396.354 176.667 387.021 177.75 376.188 177.75ZM498.057 177.75C482.057 177.75 469.223 172.75 459.557 162.75C450.057 152.75 445.307 138.667 445.307 120.5C445.307 106.5 448.557 94.25 455.057 83.75C461.557 73.0833 470.64 64.8333 482.307 59C493.973 53.1667 507.473 50.25 522.807 50.25C534.64 50.25 545.057 51.5833 554.057 54.25C563.223 56.9167 571.557 60.75 579.057 65.75V166.75C579.057 169.583 578.473 171.5 577.307 172.5C576.307 173.5 574.223 174 571.057 174H551.307C549.473 174 548.057 173.667 547.057 173C546.223 172.333 545.557 171.25 545.057 169.75L542.307 161C537.307 166.833 531.223 171.083 524.057 173.75C516.89 176.417 508.223 177.75 498.057 177.75ZM513.307 149.25C520.64 149.25 526.973 147.167 532.307 143C537.807 138.833 540.557 133.167 540.557 126V82.25C535.557 79.75 529.557 78.5 522.557 78.5C511.557 78.5 502.723 82.1667 496.057 89.5C489.557 96.6667 486.307 106.75 486.307 119.75C486.307 129.75 488.557 137.167 493.057 142C497.557 146.833 504.307 149.25 513.307 149.25ZM666.604 177.75C654.604 177.75 642.937 176.167 631.604 173C620.437 169.833 611.437 165.75 604.604 160.75V15C604.604 11.3333 605.437 8.58332 607.104 6.74999C608.937 4.91666 611.854 4 615.854 4H633.854C638.02 4 640.937 4.91666 642.604 6.74999C644.27 8.41666 645.104 11.1667 645.104 15V59.5C648.937 56.5 653.937 54.25 660.104 52.75C666.27 51.0833 672.687 50.25 679.354 50.25C698.687 50.25 713.437 55.4167 723.604 65.75C733.937 75.9167 739.104 90.4167 739.104 109.25C739.104 130.917 732.937 147.75 720.604 159.75C708.437 171.75 690.437 177.75 666.604 177.75ZM664.604 149.25C675.937 149.25 684.354 146 689.854 139.5C695.354 132.833 698.104 122.917 698.104 109.75C698.104 99.0833 695.937 91.25 691.604 86.25C687.437 81.25 680.52 78.75 670.854 78.75C663.854 78.75 657.77 80.5833 652.604 84.25C647.604 87.75 645.104 92.9167 645.104 99.75V145C647.437 146.333 650.354 147.417 653.854 148.25C657.354 148.917 660.937 149.25 664.604 149.25ZM774.633 37.25C769.966 37.25 766.299 35.9167 763.633 33.25C760.966 30.5833 759.633 27.3333 759.633 23.5V17.75C759.633 13.9167 760.966 10.6667 763.633 7.99999C766.299 5.33333 769.966 4 774.633 4H789.133C793.966 4 797.716 5.33333 800.383 7.99999C803.049 10.6667 804.383 13.9167 804.383 17.75V23.5C804.383 27.3333 803.049 30.5833 800.383 33.25C797.716 35.9167 793.966 37.25 789.133 37.25H774.633ZM772.633 174C768.466 174 765.549 173.167 763.883 171.5C762.216 169.667 761.383 166.917 761.383 163.25V65C761.383 61.1667 762.216 58.4167 763.883 56.75C765.549 54.9167 768.466 54 772.633 54H791.133C795.299 54 798.216 54.9167 799.883 56.75C801.716 58.5833 802.633 61.3333 802.633 65V163.25C802.633 166.917 801.716 169.667 799.883 171.5C798.216 173.167 795.299 174 791.133 174H772.633ZM851.695 174C847.695 174 844.779 173.167 842.945 171.5C841.279 169.667 840.445 166.917 840.445 163.25V83H830.445C826.445 83 823.695 82.1667 822.195 80.5C820.695 78.8333 819.945 76.0833 819.945 72.25V64.5C819.945 60.6667 820.695 58 822.195 56.5C823.695 54.8333 826.445 54 830.445 54H840.445V47.5C840.445 32.5 844.445 20.9167 852.445 12.75C860.612 4.41665 872.862 0.249987 889.195 0.249987C905.695 0.249987 918.612 3.66665 927.945 10.5C929.779 11.8333 930.695 13.1667 930.695 14.5C930.695 15.5 930.279 16.6667 929.445 18L921.695 30.75C920.695 32.4167 919.529 33.25 918.195 33.25C917.362 33.25 916.362 32.9167 915.195 32.25C909.695 29.25 904.195 27.75 898.695 27.75C892.529 27.75 888.112 29.25 885.445 32.25C882.945 35.25 881.695 39.9167 881.695 46.25V54H907.695C911.695 54 914.445 54.8333 915.945 56.5C917.445 58 918.195 60.6667 918.195 64.5V72.25C918.195 76.0833 917.445 78.8333 915.945 80.5C914.445 82.1667 911.695 83 907.695 83H881.695V163.25C881.695 166.917 880.862 169.667 879.195 171.5C877.529 173.167 874.612 174 870.445 174H851.695ZM956.916 213C943.249 213 931.999 209.25 923.166 201.75C921.666 200.583 920.916 199.333 920.916 198C920.916 197.167 921.333 195.917 922.166 194.25L930.666 179.5C931.666 177.667 932.833 176.75 934.166 176.75C935.333 176.75 936.666 177.25 938.166 178.25C940.833 180.083 943.416 181.417 945.916 182.25C948.416 183.25 951.333 183.75 954.666 183.75C958.999 183.75 962.333 182.417 964.666 179.75C967.166 177.25 969.499 173.083 971.666 167.25L922.166 62.25C921.499 60.9167 921.166 59.5833 921.166 58.25C921.166 55.4167 922.666 54 925.666 54H954.666C956.999 54 958.749 54.4167 959.916 55.25C961.083 56.0833 962.083 57.5 962.916 59.5L990.416 127.25L1017.92 59.5C1018.75 57.5 1019.75 56.0833 1020.92 55.25C1022.08 54.4167 1023.83 54 1026.17 54H1055.17C1058.17 54 1059.67 55.4167 1059.67 58.25C1059.67 59.5833 1059.33 60.9167 1058.67 62.25L1011.92 161.75C1005.75 174.75 1000.25 184.75 995.416 191.75C990.749 198.917 985.333 204.25 979.166 207.75C973.166 211.25 965.749 213 956.916 213Z" fill="#0693F1"/>
</svg>
